<?xml version="1.0" encoding="UTF-8"?>
<svg version="1.1" xmlns="http://www.w3.org/2000/svg" width="48" height="48">
<path d="M0 0 C15.84 0 31.68 0 48 0 C48 15.84 48 31.68 48 48 C32.16 48 16.32 48 0 48 C0 32.16 0 16.32 0 0 Z " fill="#2182B0" transform="translate(0,0)"/>
<path d="M0 0 C0.98291016 0.00966797 1.96582031 0.01933594 2.97851562 0.02929688 C4.00267578 0.05443359 5.02683594 0.07957031 6.08203125 0.10546875 C7.63567383 0.12577148 7.63567383 0.12577148 9.22070312 0.14648438 C11.77886737 0.1818507 14.33676454 0.23565779 16.89453125 0.29296875 C15.90453125 3.59296875 14.91453125 6.89296875 13.89453125 10.29296875 C11.89453125 9.29296875 11.89453125 9.29296875 10.76953125 6.73046875 C9.19691026 4.11289089 9.19691026 4.11289089 6.921875 3.96484375 C4.90983553 3.97903803 2.89989542 4.12859464 0.89453125 4.29296875 C0.89453125 5.61296875 0.89453125 6.93296875 0.89453125 8.29296875 C1.55839844 8.59589844 2.22226562 8.89882813 2.90625 9.2109375 C12.62210147 13.82064805 12.62210147 13.82064805 15.89453125 18.29296875 C16.45703125 21.35546875 16.45703125 21.35546875 15.89453125 24.29296875 C13.66246694 27.14077494 12.34460126 28.14294541 8.89453125 29.29296875 C7.25173908 29.41089874 5.60400431 29.46808549 3.95703125 29.48046875 C3.10238281 29.49464844 2.24773438 29.50882813 1.3671875 29.5234375 C-1.31199383 29.27371918 -2.85744131 28.75442935 -5.10546875 27.29296875 C-7.10546875 24.29296875 -7.10546875 24.29296875 -7.10546875 20.29296875 C-7.76546875 20.29296875 -8.42546875 20.29296875 -9.10546875 20.29296875 C-9.10546875 19.63296875 -9.10546875 18.97296875 -9.10546875 18.29296875 C-5.47546875 17.96296875 -1.84546875 17.63296875 1.89453125 17.29296875 C1.56453125 17.95296875 1.23453125 18.61296875 0.89453125 19.29296875 C0.23453125 19.29296875 -0.42546875 19.29296875 -1.10546875 19.29296875 C-0.44546875 20.94296875 0.21453125 22.59296875 0.89453125 24.29296875 C2.89407871 24.33551231 4.89494761 24.33377658 6.89453125 24.29296875 C8.19086746 23.2265176 8.19086746 23.2265176 7.95703125 20.73046875 C7.93640625 19.92609375 7.91578125 19.12171875 7.89453125 18.29296875 C7.00701172 17.91205078 7.00701172 17.91205078 6.1015625 17.5234375 C-6.52156649 12.02527202 -6.52156649 12.02527202 -9.10546875 8.29296875 C-8.96681904 5.51997453 -8.54688599 3.87812351 -6.86987305 1.6550293 C-4.48644987 -0.18489293 -2.98718829 -0.05180095 0 0 Z " fill="#EFF6F9" transform="translate(20.10546875,9.70703125)"/>
<path d="M0 0 C2.97 0 5.94 0 9 0 C8.01 3.3 7.02 6.6 6 10 C4 9 4 9 2.75 6.5 C1.17845358 3.67649412 1.17845358 3.67649412 -2.1875 3.1875 C-3.5796875 3.0946875 -3.5796875 3.0946875 -5 3 C-5 2.67 -5 2.34 -5 2 C-3.35 1.67 -1.7 1.34 0 1 C0 0.67 0 0.34 0 0 Z " fill="#DFEDF3" transform="translate(28,10)"/>
</svg>
